<?xml version="1.0" encoding="UTF-8"?>
<svg width="135.24mm" height="135.47mm" version="1.1" viewBox="0 0 135.24 135.47" xmlns="http://www.w3.org/2000/svg">
 <g transform="translate(7.4399 -63.952)">
  <path d="m60.293 93.585c8.1703 0 14.817-6.6463 14.817-14.817 0-8.1703-6.641-14.817-14.817-14.817s-15.055 6.6463-15.055 14.817c0 8.1703 6.8792 14.817 15.055 14.817zm37.862 88.9h-76.2c-7.0141 0-12.7 5.6859-12.7 12.462 0.23283 2.5665 2.1299 4.4715 4.4662 4.4715h93.133c2.3381 0 4.2333-1.8952 4.2333-4.2333-0.23283-7.0115-5.6832-12.7-12.933-12.7zm29.633-66.305c0-1.37-0.66384-2.6988-1.8775-3.5084l-7.3036-4.2175c-0.71014-0.47334-1.4822-0.69321-2.2482-0.69321-4.5561 0-4.6011 6.9771-13.737 6.9771-7.7655 0-12.692-6.7151-12.692-13.396-0.24156-1.9367-1.8291-3.5242-3.5489-3.5242h-10.253c-1.5875 0-3.0771 1.0583-3.4078 2.6128-1.2621 5.8804-6.4214 10.087-12.666 10.087-6.0193 0-11.179-4.2016-12.435-10.086-0.10583-1.5558-1.561-2.6141-3.175-2.6141h-10.253c-2.1828 0-3.7703 1.5875-3.7703 3.5454 0 4.8816-3.6327 13.393-12.687 13.393-9.1493 0-9.226-6.9824-13.724-6.9824-0.76967 0-1.5359 0.22051-2.231 0.69983l-7.575 4.2333c-0.98134 0.77391-1.6452 2.1233-1.6452 3.4727 0 0.66145 0.14777 1.2964 0.45508 1.905l27.115 55.933h80.301l27.12-55.933c0.3175-0.60855 0.23812-1.27 0.23812-1.905z" fill="#4a0" stroke-width=".26458"/>
 </g>
</svg>
