<?xml version="1.0" encoding="UTF-8"?>
<svg width="27.74mm" height="27.743mm" version="1.1" viewBox="0 0 27.74 27.743" xmlns="http://www.w3.org/2000/svg">
 <g transform="translate(-138.43 -135.39)">
  <path d="m158.26 149.26 6.6768-6.6789c1.646-1.646 1.646-4.3146 0-5.9582-1.6462-1.6462-4.3127-1.6462-5.9587 0l-6.6768 6.6784-6.6768-6.6784c-1.646-1.6462-4.3124-1.6462-5.9582 0-1.646 1.6438-1.646 4.3124 0 5.9582l6.6768 6.6789-6.6768 6.6789c-1.646 1.646-1.646 4.3146 0 5.9582 0.82286 0.82285 1.9013 1.2345 2.9792 1.2345 1.0782 0 2.1561-0.41169 2.9792-1.2345l6.6768-6.6784 6.6768 6.6784c0.82286 0.82285 1.9013 1.2345 2.9792 1.2345 1.0784 0 2.1561-0.41169 2.9795-1.2345 1.646-1.6439 1.646-4.3124 0-5.9582z" stroke-width=".26458"/>
 </g>
</svg>
