<?xml version="1.0" encoding="UTF-8" standalone="no"?>
<!-- Generator: Adobe Illustrator 18.0.0, SVG Export Plug-In . SVG Version: 6.00 Build 0)  -->

<svg
   version="1.1"
   id="Capa_1"
   x="0px"
   y="0px"
   viewBox="0 0 104.842 104.85575"
   xml:space="preserve"
   sodipodi:docname="x-mark.svg"
   inkscape:version="1.1.1 (3bf5ae0d25, 2021-09-20)"
   width="104.842"
   height="104.85575"
   xmlns:inkscape="http://www.inkscape.org/namespaces/inkscape"
   xmlns:sodipodi="http://sodipodi.sourceforge.net/DTD/sodipodi-0.dtd"
   xmlns="http://www.w3.org/2000/svg"
   xmlns:svg="http://www.w3.org/2000/svg"><defs
   id="defs167">
	
	
	
	
	















</defs><sodipodi:namedview
   id="namedview165"
   pagecolor="#ffffff"
   bordercolor="#111111"
   borderopacity="1"
   inkscape:pageshadow="0"
   inkscape:pageopacity="0"
   inkscape:pagecheckerboard="1"
   showgrid="false"
   inkscape:zoom="1.6670469"
   inkscape:cx="135.86901"
   inkscape:cy="218.35019"
   inkscape:window-width="1920"
   inkscape:window-height="1011"
   inkscape:window-x="0"
   inkscape:window-y="0"
   inkscape:window-maximized="1"
   inkscape:current-layer="Capa_1"
   fit-margin-top="0"
   fit-margin-left="0"
   fit-margin-right="0"
   fit-margin-bottom="0" />
<path
   d="m 431.9915,324.49875 c 8.794,0 15.926,-7.132 15.926,-15.926 0,-8.794 -7.132,-15.926 -15.926,-15.926 h -100.859 v -143.334 h 100.859 c 8.794,0 15.926,-7.132 15.926,-15.926 0,-8.794 -7.132,-15.926 -15.926,-15.926 h -100.859 v -100.859 c 0,-8.7959998 -7.132,-15.92599978 -15.926,-15.92599978 -8.796,0 -15.926,7.12999998 -15.926,15.92599978 v 100.859 h -143.333 v -100.866 c 0,-8.7939998 -7.132,-15.92599978 -15.926,-15.92599978 -8.796,0 -15.926,7.13199998 -15.926,15.92599978 v 100.867 H 23.2285 c -8.794,0 -15.926,7.132 -15.926,15.926 0,8.794 7.132,15.926 15.926,15.926 h 100.867 v 143.333 H 23.2285 c -8.794,0 -15.926,7.132 -15.926,15.926 0,8.794 7.132,15.926 15.926,15.926 h 100.867 v 100.859 c 0,8.796 7.13,15.926 15.926,15.926 8.794,0 15.926,-7.13 15.926,-15.926 v -100.859 h 143.333 v 100.867 c 0,8.794 7.13,15.926 15.926,15.926 8.794,0 15.926,-7.132 15.926,-15.926 v -100.867 z m -276.044,-31.852 v -143.334 h 143.333 v 143.333 h -143.333 z"
   id="path122" /><path
   d="m 27.1855,100.18975 25.235,-25.241 25.235001,25.241 c 3.109999,3.11 7.183999,4.666 11.259999,4.666 4.075,0 8.149,-1.556 11.26,-4.666 6.222,-6.212997 6.222,-16.299 0,-22.519 l -25.234,-25.243 25.233,-25.243 c 6.222,-6.221 6.222,-16.306 0,-22.5189998 -6.221,-6.2210003 -16.299,-6.2210003 -22.518999,0 L 52.4205,29.90675 27.1855,4.6657502 c -6.221,-6.2210003 -16.299,-6.2210003 -22.519,0 -6.222,6.2129998 -6.222,16.2989998 0,22.5189998 l 25.233,25.243 -25.233,25.242 c -6.222,6.221 -6.222,16.307003 0,22.519 3.11,3.11 7.184,4.666 11.26,4.666 4.075,0.001 8.149,-1.555 11.259,-4.665 z"
   id="path124" /><path
   d="m 250.1295,220.97975 25.235,-25.243 c 6.221,-6.221 6.221,-16.307 0,-22.519 -6.222,-6.222 -16.3,-6.222 -22.521,0 l -25.235,25.241 -25.235,-25.241 c -6.221,-6.222 -16.299,-6.222 -22.519,0 -6.221,6.213 -6.221,16.299 0,22.519 l 25.235,25.243 -25.235,25.243 c -6.221,6.221 -6.221,16.307 0,22.519 3.11,3.11 7.186,4.666 11.26,4.666 4.075,0 8.149,-1.556 11.26,-4.666 l 25.235,-25.241 25.235,25.241 c 3.11,3.11 7.186,4.666 11.26,4.666 4.076,0 8.149,-1.556 11.261,-4.666 6.221,-6.213 6.221,-16.299 0,-22.519 z"
   id="path126" /><path
   d="m 236.01999,106.26074 c 32.389,0 58.735,-26.345997 58.735,-58.734997 0,-32.389 -26.346,-58.735 -58.735,-58.735 -32.389,0 -58.735,26.346 -58.735,58.735 0,32.388 26.347,58.734997 58.735,58.734997 z m 0,-85.617997 c 14.822,0 26.883,12.061 26.883,26.883 0,14.822 -12.061,26.883 -26.883,26.883 -14.822,0 -26.883,-12.061 -26.883,-26.883 0,-14.822 12.061,-26.883 26.883,-26.883 z"
   id="path128" /><path
   d="m 396.2285,332.11875 c -32.389,0 -58.735,26.346 -58.735,58.735 0,32.389 26.346,58.735 58.735,58.735 32.388,0 58.735,-26.346 58.735,-58.735 0,-32.389 -26.347,-58.735 -58.735,-58.735 z m 0,85.618 c -14.822,0 -26.883,-12.061 -26.883,-26.883 0,-14.822 12.061,-26.883 26.883,-26.883 14.822,0 26.883,12.061 26.883,26.883 0,14.822 -12.061,26.883 -26.883,26.883 z"
   id="path130" />















</svg>
