<?xml version="1.0" encoding="UTF-8"?>
<svg width="27.74mm" height="27.743mm" version="1.1" viewBox="0 0 27.74 27.743" xmlns="http://www.w3.org/2000/svg">
 <g transform="translate(-138.43 -135.39)">
  <path d="m158.26 149.26 6.6768-6.6789c1.646-1.646 1.646-4.3146 0-5.9582-1.6462-1.6462-4.3127-1.6462-5.9587 0l-6.6768 6.6784-6.6768-6.6784c-1.646-1.6462-4.3124-1.6462-5.9582 0-1.646 1.6438-1.646 4.3124 0 5.9582l6.6768 6.6789-6.6768 6.6789c-1.646 1.646-1.646 4.3146 0 5.9582 0.82286 0.82285 1.9013 1.2345 2.9792 1.2345 1.0782 0 2.1561-0.41169 2.9792-1.2345l6.6768-6.6784 6.6768 6.6784c0.82286 0.82285 1.9013 1.2345 2.9792 1.2345 1.0784 0 2.1561-0.41169 2.9795-1.2345 1.646-1.6439 1.646-4.3124 0-5.9582z" stroke-width=".26458"/>
 </g>
 <path transform="scale(.26458)" d="m13.118 104.52c-2.233-0.40516-4.7551-1.5095-6.6031-2.8913-6.1484-4.5973-8.1715-12.869-4.8033-19.638 1.1828-2.3772 1.12-2.3092 15.04-16.259l13.281-13.309-13.025-13.039c-7.1636-7.1712-13.354-13.471-13.756-14-1.31-1.7202-2.3687-4.0656-2.865-6.3468-0.32405-1.4896-0.32735-4.8403-0.00618-6.2652 0.71096-3.1542 1.991-5.531 4.2217-7.839 1.4762-1.5274 2.7223-2.4245 4.6396-3.3404 4.3402-2.0733 9.466-2.0054 13.822 0.18299 2.1228 1.0666 2.3855 1.3114 16.025 14.932 7.265 7.2549 13.268 13.191 13.34 13.191 0.07202 0 6.075-5.9359 13.34-13.191 13.639-13.62 13.902-13.865 16.025-14.932 4.4758-2.2488 9.5978-2.2641 14.079-0.042139 1.7868 0.88598 2.7695 1.5805 4.1381 2.9246 4.96 4.8714 6.1659 12.18 3.0364 18.404-1.0783 2.1444-1.3565 2.4433-15.007 16.122l-13.214 13.241 13.281 13.308c13.917 13.946 13.847 13.87 15.042 16.258 3.0384 6.0723 1.7303 13.476-3.2271 18.266-3.105 2.9997-6.7265 4.462-11.051 4.462-3.5663 0-6.7896-1.0997-9.6189-3.2817-0.51912-0.40034-6.766-6.5531-13.882-13.673l-12.938-12.945-13.276 13.254c-11.281 11.263-13.447 13.365-14.416 13.996-1.9934 1.2982-3.4927 1.9179-5.7554 2.379-1.5544 0.31677-4.328 0.35064-5.8658 0.0716z" fill="#ff2a2a" stroke-width=".13409"/>
 <path transform="scale(.26458)" d="m87.459 104.57c-2.5348-0.20532-5.1628-1.1527-7.4215-2.6754-0.82497-0.55617-4.0063-3.6521-14.294-13.911-7.2781-7.2574-13.297-13.174-13.374-13.148-0.07768 0.02605-5.3458 5.2392-11.707 11.585-13.485 13.452-14.901 14.829-16.028 15.595-1.2417 0.84319-3.135 1.7092-4.6555 2.1295-1.2718 0.35156-1.486 0.37041-4.1567 0.3657-2.6772-5e-3 -2.8752-0.023-4.0226-0.37176-1.5384-0.46757-4.1689-1.7712-5.3033-2.6281-1.7903-1.3524-3.6468-3.5834-4.6713-5.6135-0.57449-1.1384-1.157-2.9267-1.4292-4.3876-0.3278-1.7593-0.21478-4.632 0.25213-6.4085 0.40714-1.5491 1.1807-3.3606 1.894-4.4352 0.95827-1.4437 2.8153-3.3735 15.214-15.811l12.403-12.441-11.065-11.091c-14.752-14.787-15.86-15.938-16.629-17.265-0.79542-1.3736-1.4977-3.0491-1.8801-4.486-0.26376-0.99088-0.30377-1.4725-0.30637-3.6874-0.0026295-2.2438 0.033769-2.6836 0.30521-3.6874 0.77858-2.8793 1.9628-4.9674 4.0826-7.199 3.8642-4.068 9.7008-5.7432 15.137-4.3444 2.538 0.65308 4.2198 1.5598 6.2755 3.3832 0.77435 0.68686 6.9772 6.7863 13.784 13.554 6.807 6.768 12.462 12.305 12.566 12.305 0.1043 0 5.758-5.5368 12.564-12.304 12.47-12.4 14.449-14.3 15.789-15.161 2.3712-1.5234 6.0735-2.4526 8.9632-2.2494 3.8381 0.26979 7.3355 1.7963 9.9936 4.3618 2.542 2.4535 4.1494 5.4383 4.7338 8.7907 0.30567 1.7532 0.18669 4.6631-0.26049 6.3712-0.40688 1.5541-1.1983 3.4181-1.9 4.4751-0.95173 1.4336-2.9648 3.5248-15.348 15.943l-12.271 12.306 11.603 11.628c14.957 14.99 15.409 15.465 16.453 17.327 1.2182 2.1725 1.7683 4.2343 1.8605 6.9725 0.0792 2.3535-0.15063 3.8679-0.90217 5.9449-1.9897 5.4989-7.4714 9.8069-12.999 10.216-0.55311 0.0409-1.2168 0.0928-1.4749 0.11516-0.25812 0.0224-1.0568-7e-3 -1.7749-0.065z" fill="#ba5546" stroke-width=".13409"/>
</svg>
